# xmcd
#
# Track frame offsets:
#  150
#  13465
#  18572
#  28787
#  41145
#  52367
#  65830
#  77547
#  88630
#  98987
#  108080
#  117725
#  127780
#  139885
#  150560
#  162002
#  172002
#  182945
#  192970
#  203190
#  215225
#  224412
#  235557
#  247465
#  256575
#  269647
#  281110
#  293272
#  304787
#  316945
#  326732
#  337892
#  347012
#  355462
#
# Disc length: 4865 seconds
#
# Revision: 0
# Processed by: cddbd v1.5.2PL0 Copyright (c) Steve Scherf et al.
# Submitted via: AltoMP3_Maker 3.0
#
DISCID=1612ff22
DTITLE=Jimmie Skinner - One Dead Man Ago
DYEAR=1900
DGENRE=
TTITLE0=The Rambler's Call
TTITLE1=Jimmie Speaks
TTITLE2=Ramblin' Boy Blues
TTITLE3=Lula Lee
TTITLE4=Muddy Water Blues
TTITLE5=There's Nothin' about You Special
TTITLE6=Running out of Time
TTITLE7=It's All the Same to Me
TTITLE8=Kentucky and You
TTITLE9=Women Beware (of the Ramblin' Kind)
TTITLE10=I Ain't Got Time
TTITLE11=By Degrees
TTITLE12=Doin' My Time
TTITLE13=Don't Give My Heart to a Rambler
TTITLE14=My Broken Heart's Startin' to Show
TTITLE15=Baby I Could Change My Ways
TTITLE16=Too Hot to Handle
TTITLE17=(My Heart's) On a Budget
TTITLE18=Dime a Dozen (That's What You Are)
TTITLE19=How Low Can You Feel
TTITLE20=I Need a Little Lovin'
TTITLE21=Another Saturday Night
TTITLE22=Just Ramblin' on
TTITLE23=Where My Sweet Baby Goes
TTITLE24=I Found My Girl in the U.S.A.
TTITLE25=Hafta Do Somethin' 'bout That
TTITLE26=You Don't Know My Mind
TTITLE27=John Wesley Hardin
TTITLE28=Riverboat Gambler
TTITLE29=I'm a Lot More Lonesome Now
TTITLE30=100 Proof Heartaches
TTITLE31=I Know You're Married (but I Love You Still)
TTITLE32=One Dead Man Ago
TTITLE33=Rambler's Call
EXTD=
EXTT0=
EXTT1=
EXTT2=
EXTT3=
EXTT4=
EXTT5=
EXTT6=
EXTT7=
EXTT8=
EXTT9=
EXTT10=
EXTT11=
EXTT12=
EXTT13=
EXTT14=
EXTT15=
EXTT16=
EXTT17=
EXTT18=
EXTT19=
EXTT20=
EXTT21=
EXTT22=
EXTT23=
EXTT24=
EXTT25=
EXTT26=
EXTT27=
EXTT28=
EXTT29=
EXTT30=
EXTT31=
EXTT32=
EXTT33=
PLAYORDER=
